<svg width="909" height="395" viewBox="0 0 909 395" fill="none" xmlns="http://www.w3.org/2000/svg">
<mask id="mask0_85_10" style="mask-type:alpha" maskUnits="userSpaceOnUse" x="0" y="0" width="909" height="395">
<path d="M667.625 213.597L678.208 173.68H683.628L682.2 185.691L670.81 227H665.281L667.625 213.597ZM658.616 173.68L667.185 213.121L668.539 227H662.754L650.229 173.68H658.616ZM696.262 213.011L704.648 173.68H713.07L700.547 227H694.797L696.262 213.011ZM685.312 173.68L695.75 213.633L698.057 227H692.526L681.393 185.655L679.966 173.68H685.312ZM754.664 173.68V227H746.205V173.68H754.664ZM800.432 173.68V227H791.971V173.68H800.432ZM832.512 173.68L810.721 199.058L798.38 212.059L796.916 203.489L805.888 192.833L822.258 173.68H832.512ZM823.723 227L805.411 201.475L810.979 195.433L833.757 227H823.723ZM873.737 173.68V227H865.279V173.68H873.737Z" fill="black"/>
<mask id="mask1_85_10" style="mask-type:luminance" maskUnits="userSpaceOnUse" x="1" y="0" width="577" height="395">
<path d="M577.416 0H1V394.809H577.416V0Z" fill="white"/>
</mask>
<g mask="url(#mask1_85_10)">
<path d="M141.804 206.991L150.071 185.258L158.338 206.991L159.805 210.858L165.938 226.992H174.605L153.271 173.524H147.138L125.271 226.992H134.071L140.204 210.858L141.804 206.991Z" fill="black"/>
<path d="M316.608 180.857V173.524H280.474V226.992H288.341V202.058H313.675V194.671H288.341V180.804L316.608 180.857Z" fill="black"/>
<path d="M349.143 173.524H357.143V226.992H349.143V173.524Z" fill="black"/>
<path d="M431.678 181.124V173.524H395.677V226.992H433.545V219.392H403.677V203.391H429.011V195.791H403.677V181.124H431.678Z" fill="black"/>
<path d="M563.814 175.124C560.081 173.657 555.548 173.657 550.347 173.524H534.614V227.125H549.281C557.681 227.125 562.748 227.125 567.815 223.125C573.948 218.325 577.415 210.058 577.415 200.191C577.415 188.191 572.081 178.324 563.814 175.124ZM561.148 218.192C558.214 219.525 552.881 219.525 549.681 219.525H542.614V181.124H549.814C555.814 181.124 558.348 181.124 560.881 182.191C566.081 184.458 569.415 191.791 569.415 200.325C569.415 210.058 565.281 216.325 561.148 218.192Z" fill="black"/>
<path d="M22.2015 179.391C24.0375 179.299 25.8686 179.651 27.5397 180.417C29.2108 181.183 30.6728 182.34 31.8017 183.791C32.4186 184.603 32.9128 185.502 33.2684 186.458L33.6684 187.524H42.3353L41.802 185.524C40.0686 179.391 33.9351 172.191 22.3348 172.191C13.5346 172.191 4.06772 176.057 4.06772 186.858C4.06772 198.058 14.3346 200.591 20.4681 202.191L21.0015 202.325C27.0016 203.925 29.6683 204.591 31.6684 206.325C32.4707 206.983 33.1063 207.821 33.5234 208.771C33.9404 209.721 34.1272 210.756 34.0684 211.792C34.0684 215.925 30.8684 220.859 21.6681 220.859C19.1347 220.859 12.8679 220.325 10.3345 215.258C9.82248 214.166 9.50654 212.993 9.40118 211.792L9.53451 210.325H1.00098L1.26765 212.192C1.65766 214.742 2.55471 217.189 3.90585 219.388C5.257 221.586 7.03486 223.492 9.1345 224.992C12.9563 227.279 17.3488 228.435 21.8015 228.325C35.1351 228.325 42.202 219.925 42.202 211.658C42.202 206.725 39.9352 200.058 29.535 196.858C28.6016 196.458 25.8016 195.791 22.3348 194.858C20.8681 194.458 19.6681 194.191 19.2681 194.058C15.4013 192.858 11.9346 191.258 11.9346 186.858C12.0679 179.658 20.6014 179.391 22.2015 179.391Z" fill="black"/>
<path d="M244.607 189.524C244.607 185.391 243.54 177.257 234.607 174.457C231.273 173.391 224.073 173.657 220.473 173.657H204.339V227.125H212.34V204.725H221.806L237.673 226.992H247.674L231.14 204.325C234.609 203.966 237.876 202.519 240.474 200.191C241.836 198.777 242.904 197.105 243.614 195.274C244.323 193.442 244.661 191.488 244.607 189.524ZM230.74 196.858C228.048 197.257 225.324 197.391 222.606 197.258H212.34V180.857H223.006C225.543 180.752 228.084 180.841 230.607 181.124C235.807 182.191 236.607 186.591 236.607 189.124C236.607 191.658 235.94 195.791 230.74 196.858Z" fill="black"/>
<path d="M107.67 173.538V180.871H67.9355V173.538H107.67Z" fill="black"/>
<path d="M504.613 219.405V227.139H465.146C465.412 225.405 465.812 222.872 466.212 219.405H504.613Z" fill="black"/>
<path d="M88.4696 173.804C87.508 181.635 87.0182 189.516 87.0029 197.405C87.0184 205.471 87.5081 213.53 88.4696 221.539C94.2516 267.275 116.237 309.423 150.437 340.335C184.637 371.247 228.786 388.875 274.872 390.02C320.957 391.165 365.927 375.752 401.62 346.577C437.313 317.402 461.365 276.398 469.412 231.006" stroke="black" stroke-width="9.46689"/>
<path d="M470.212 226.472C471.666 216.852 472.379 207.134 472.345 197.405C472.315 148.676 453.825 101.768 420.599 66.1233C387.372 30.4791 341.876 8.74552 293.269 5.29775C244.663 1.84998 196.554 16.9441 158.629 47.5414C120.704 78.1387 95.7778 121.967 88.8691 170.204" stroke="black" stroke-width="9.46689"/>
</g>
</mask>
<g mask="url(#mask0_85_10)">
<rect x="-102" y="88" width="1021" height="219" fill="white"/>
</g>
</svg>